<svg class="svg-icon" style="width: 1em; height: 1em;vertical-align: middle;fill: currentColor;overflow: hidden;" viewBox="0 0 1024 1024" version="1.1" xmlns="http://www.w3.org/2000/svg"><path d="M524.8 521.386667A209.92 209.92 0 0 0 597.333333 362.666667a213.333333 213.333333 0 0 0-426.666666 0 209.92 209.92 0 0 0 72.533333 158.72A341.333333 341.333333 0 0 0 42.666667 832a42.666667 42.666667 0 0 0 85.333333 0 256 256 0 0 1 512 0 42.666667 42.666667 0 0 0 85.333333 0 341.333333 341.333333 0 0 0-200.533333-310.613333zM384 490.666667a128 128 0 1 1 128-128 128 128 0 0 1-128 128z m415.573333 13.653333A213.333333 213.333333 0 0 0 640 149.333333a42.666667 42.666667 0 0 0 0 85.333334 128 128 0 0 1 128 128 128 128 0 0 1-64 110.506666 42.666667 42.666667 0 0 0-21.333333 35.84 42.666667 42.666667 0 0 0 19.2 36.693334l16.64 11.093333 5.546666 2.986667a298.666667 298.666667 0 0 1 170.666667 272.213333 42.666667 42.666667 0 0 0 85.333333 0 384 384 0 0 0-180.48-327.68z"  /></svg>